<svg width="32" height="22" viewBox="0 0 32 22" fill="none" xmlns="http://www.w3.org/2000/svg">
<path d="M31.3307 3.43597C31.1499 2.77151 30.7934 2.16505 30.2968 1.67734C29.8003 1.18963 29.1811 0.837774 28.5013 0.657015C26.0067 -1.78814e-07 16 0 16 0C16 0 5.99333 -1.78814e-07 3.49733 0.657015C2.81788 0.838096 2.19906 1.19008 1.70277 1.67775C1.20648 2.16543 0.850122 2.77172 0.669333 3.43597C0 5.88706 0 11 0 11C0 11 0 16.113 0.669333 18.5641C0.850115 19.2286 1.20663 19.835 1.70319 20.3227C2.19974 20.8104 2.8189 21.1622 3.49867 21.343C5.99333 22 16 22 16 22C16 22 26.0067 22 28.5027 21.343C29.1825 21.1624 29.8017 20.8106 30.2983 20.3229C30.7949 19.8351 31.1513 19.2286 31.332 18.5641C32 16.113 32 11 32 11C32 11 32 5.88706 31.3307 3.43597ZM12.7267 15.642V6.35806L21.0907 11L12.7267 15.642Z" fill="#CCCCCC"/>
</svg>
