<svg xmlns="http://www.w3.org/2000/svg" width="129" height="129" viewBox="0 0 129 129" fill="none"><g clip-path="url(#clip0_0_52)"><path d="M114.144 91.0364C113.436 90.7431 112.622 90.9052 112.08 91.4466L91.3881 112.139C90.8467 112.68 90.6847 113.495 90.9779 114.202C91.2707 114.91 91.9616 115.371 92.7273 115.371H113.419C114.465 115.371 115.313 114.523 115.313 113.477V92.7855C115.312 92.0198 114.851 91.3294 114.144 91.0364ZM97.2977 111.584L111.525 97.3567V111.584H97.2977Z" fill="#BD8C47"></path><path d="M127.831 60.6873C127.124 60.394 126.31 60.556 125.768 61.0974L120.097 66.7682V28.2114C120.097 27.1656 119.249 26.318 118.204 26.318H103.656L108.937 21.0371C108.937 21.0363 108.938 21.0353 108.939 21.0345L114.027 15.9461C115.118 14.8559 115.718 13.4056 115.718 11.8637C115.718 10.3217 115.118 8.87198 114.027 7.78128L108.143 1.89715C107.053 0.806948 105.603 0.206543 104.061 0.206543C102.519 0.206543 101.069 0.806948 99.9785 1.89715L94.8875 6.98813L88.7358 13.1398L75.5579 26.3178H16.7852V7.58627C16.7852 6.54041 15.9373 5.69283 14.8917 5.69283C6.68055 5.69334 0 12.3734 0 20.5851V101.005C0 101.145 0.016125 101.281 0.0448477 101.412C0.306376 104.896 1.81381 108.134 4.3331 110.591C7.02598 113.218 10.5808 114.664 14.343 114.664H72.2011L61.3043 125.561C60.7629 126.102 60.6009 126.917 60.8939 127.624C61.1869 128.332 61.8775 128.793 62.6432 128.793H127.107C128.152 128.793 129 127.946 129 126.9V62.4366C129 61.6709 128.539 60.9803 127.831 60.6873ZM102.657 4.57517C103.431 3.80066 104.692 3.80066 105.466 4.57517L111.35 10.4595C112.125 11.2338 112.125 12.4943 111.35 13.2688L107.598 17.0209L98.9044 8.32726L102.657 4.57517ZM96.2266 11.005L104.92 19.6984L101.446 23.1726L92.7529 14.4792L96.2266 11.005ZM125.214 83.712H121.721C120.675 83.712 119.827 84.5596 119.827 85.6055C119.827 86.6513 120.675 87.4989 121.721 87.4989H125.214V93.2046H121.721C120.675 93.2046 119.827 94.0522 119.827 95.0981C119.827 96.1439 120.675 96.9915 121.721 96.9915H125.214V102.697H121.721C120.675 102.697 119.827 103.545 119.827 104.59C119.827 105.636 120.675 106.484 121.721 106.484H125.214V112.19H121.721C120.675 112.19 119.827 113.037 119.827 114.083C119.827 115.129 120.675 115.976 121.721 115.976H125.214V125.007H67.2142L86.3395 105.882C87.0789 105.142 87.0789 103.944 86.3395 103.204C86.2545 103.119 86.1633 103.046 86.0678 102.98C85.3306 102.475 84.3163 102.55 83.6614 103.204L75.9879 110.878H14.3432C8.60069 110.878 3.97784 106.394 3.79593 100.662C3.80677 100.302 3.83473 99.9457 3.87958 99.5929C3.87983 99.5909 3.88009 99.5889 3.88034 99.5869C3.9015 99.4193 3.92695 99.2525 3.95592 99.0867C3.9592 99.0678 3.96273 99.049 3.966 99.0301C3.99246 98.8822 4.02219 98.735 4.05469 98.5884C4.06376 98.5476 4.07333 98.5068 4.08291 98.4662C4.11163 98.3422 4.14262 98.219 4.17588 98.0963C4.19402 98.0298 4.21292 97.964 4.23232 97.8978C4.26003 97.8015 4.28875 97.7055 4.31924 97.6106C4.34973 97.5156 4.38223 97.4216 4.41524 97.3276C4.43816 97.2618 4.46084 97.1961 4.48553 97.1308C4.53164 97.0069 4.58052 96.8842 4.63091 96.7625C4.64527 96.7275 4.65938 96.6919 4.67424 96.6569C4.739 96.5057 4.80627 96.3563 4.87732 96.2087C4.88034 96.2024 4.88311 96.1961 4.88614 96.1898C6.36712 93.125 9.21546 90.8401 12.6337 90.1311C12.6433 90.129 12.6529 90.1268 12.6624 90.1248C12.8191 90.0928 12.9774 90.0653 13.1366 90.0399C13.1631 90.0356 13.1895 90.0303 13.2165 90.0262C13.3603 90.0043 13.5057 89.9872 13.6511 89.9708C13.6919 89.9663 13.7325 89.96 13.7735 89.9559C13.9139 89.9418 14.0555 89.9325 14.1971 89.9237C14.2419 89.9209 14.2868 89.9161 14.3316 89.9139C14.5171 89.9046 14.704 89.8998 14.8917 89.8998C15.9373 89.8998 16.7852 89.0522 16.7852 88.0063V74.2776C16.7852 73.2318 15.9373 72.3842 14.8917 72.3842C13.8461 72.3842 12.9983 73.2318 12.9983 74.2776V86.2321C9.80099 86.6365 6.83323 88.0625 4.49309 90.3477C4.24693 90.5881 4.01362 90.838 3.78636 91.092V20.5851C3.78636 15.1073 7.77378 10.5427 12.998 9.6412V28.2114V66.7042V66.7044C12.998 67.75 13.8459 68.5978 14.8915 68.5978C15.9371 68.5978 16.7849 67.75 16.7849 66.7044V66.7042V30.1049H71.7713L61.3041 40.572C60.5646 41.3118 60.5646 42.5103 61.3041 43.2498C62.0436 43.989 63.2424 43.989 63.9816 43.2498L77.6811 29.5503C77.6816 29.5498 77.6818 29.5493 77.6823 29.5491L90.0747 17.1567L98.7678 25.8504L97.7479 26.8703C97.7472 26.871 97.7462 26.8718 97.7454 26.8726L59.5674 65.0511L50.874 56.3577L58.3993 48.8323C59.1388 48.0926 59.1388 46.8941 58.3993 46.1546C57.6598 45.4153 56.461 45.4153 55.7218 46.1546L46.8573 55.0188C46.81 55.0662 46.7656 55.1163 46.724 55.1677C46.7102 55.1848 46.6978 55.2032 46.6847 55.2211C46.658 55.2566 46.6318 55.2924 46.6074 55.3297C46.5935 55.3514 46.5809 55.3736 46.5678 55.396C46.5469 55.4312 46.5268 55.467 46.5084 55.5036C46.4963 55.5272 46.4854 55.5512 46.4744 55.5759C46.4575 55.6129 46.4419 55.6507 46.4275 55.6885C46.4225 55.7018 46.4159 55.7144 46.4111 55.7278L42.7223 66.1776L40.2073 73.3026C40.174 73.3973 40.1501 73.4936 40.1322 73.5906H33.8354C32.7897 73.5906 31.9419 74.4381 31.9419 75.484C31.9419 76.5298 32.7897 77.3774 33.8354 77.3774H86.2704C87.3163 77.3774 88.1639 76.5298 88.1639 75.484C88.1639 74.4381 87.3163 73.5906 86.2704 73.5906H48.6505L60.1975 69.5145C60.2071 69.5109 60.2162 69.5061 60.2257 69.5026C60.2706 69.486 60.3147 69.4673 60.3583 69.4474C60.3756 69.4394 60.393 69.4318 60.4099 69.4235C60.4553 69.4008 60.4999 69.3759 60.5437 69.3492C60.5578 69.3406 60.5724 69.3328 60.5863 69.324C60.6319 69.2947 60.6762 69.2627 60.7198 69.229C60.7306 69.2207 60.742 69.2134 60.7526 69.2048C60.8052 69.1625 60.8569 69.1169 60.9058 69.068L99.8689 30.1051H116.31V70.5553L89.2261 97.6395C88.4866 98.3793 88.4866 99.5778 89.2261 100.317C89.2722 100.363 89.3203 100.407 89.37 100.447C89.7172 100.73 90.1412 100.872 90.565 100.872C90.9888 100.872 91.413 100.73 91.76 100.447C91.8096 100.407 91.8577 100.363 91.9039 100.317C91.9046 100.317 91.9039 100.317 91.9046 100.317L125.214 67.007V83.712ZM56.1043 66.943L50.6807 68.8576L47.0672 65.2441L48.9818 59.8205L56.1043 66.943Z" fill="#BD8C47"></path></g><defs><clipPath id="clip0_0_52"><rect width="129" height="129" fill="white"></rect></clipPath></defs></svg>