<svg width="77" height="77" viewBox="0 0 77 77" fill="none" xmlns="http://www.w3.org/2000/svg">
<g clip-path="url(#clip0_319_39)">
<path d="M19.25 15.4C19.25 13.2738 20.9738 11.55 23.1 11.55H73.15C75.2762 11.55 77 13.2738 77 15.4C77 17.5263 75.2762 19.25 73.15 19.25H23.1C20.9738 19.25 19.25 17.5261 19.25 15.4ZM73.15 34.65H3.85C1.72378 34.65 0 36.374 0 38.5C0 40.6263 1.72378 42.35 3.85 42.35H73.15C75.2762 42.35 77 40.6263 77 38.5C77 36.374 75.2762 34.65 73.15 34.65ZM73.15 57.7501H38.5C36.3739 57.7501 34.65 59.4738 34.65 61.6C34.65 63.7261 36.3739 65.4501 38.5 65.4501H73.15C75.2762 65.4501 77 63.7261 77 61.6C77 59.4738 75.2762 57.7501 73.15 57.7501Z" fill="#BD8C47"/>
</g>
<defs>
<clipPath id="clip0_319_39">
<rect width="77" height="77" fill="white"/>
</clipPath>
</defs>
</svg>
