<svg width="129" height="129" viewBox="0 0 129 129" fill="none" xmlns="http://www.w3.org/2000/svg">
<g clip-path="url(#clip0_0_71)">
<path fill-rule="evenodd" clip-rule="evenodd" d="M118.819 52.0726H32.8592L115.424 28.1548C116.066 27.9688 116.607 27.5347 116.93 26.9501C117.253 26.3645 117.329 25.6756 117.143 25.0339L112.823 10.1185C111.097 4.16116 105.55 0 99.3335 0C98.0235 0 96.7185 0.186012 95.4528 0.552132L17.9329 23.0084C14.3475 24.0468 11.3762 26.4305 9.56433 29.7187C7.75342 33.0068 7.32825 36.793 8.36657 40.3775L12.5878 54.9494V114.978C12.5878 122.71 18.8777 129 26.6086 129H56.8843C58.2759 129 59.4038 127.872 59.4038 126.48C59.4038 125.089 58.2759 123.961 56.8843 123.961H26.6096C21.6561 123.961 17.6268 119.932 17.6268 114.978V80.6909H30.5345H30.5404H30.5453H50.2764H50.2823H50.2882H70.0193H70.0252H70.0311H89.7622H89.7681H89.773H116.299V114.978C116.299 119.932 112.27 123.961 107.316 123.961H77.0405C75.6499 123.961 74.521 125.089 74.521 126.48C74.521 127.872 75.6499 129 77.0405 129H107.316C115.048 129 121.338 122.71 121.338 114.978V54.5921C121.338 53.2005 120.21 52.0726 118.819 52.0726ZM74.3911 75.6519L85.0961 57.1117H99.0195L88.3154 75.6519H74.3911ZM54.6482 75.6519L65.3533 57.1117H79.2766L68.5726 75.6519H54.6482ZM34.9063 75.6519L45.6104 57.1117H59.5347L48.8297 75.6519H34.9063ZM44.2738 43.0348L26.3478 25.8173L39.779 21.9268C39.8735 22.0646 39.9837 22.1945 40.1097 22.3156L58.0358 39.533L44.6045 43.4235C44.51 43.2857 44.3988 43.1548 44.2738 43.0348ZM78.0356 11.329L95.9616 28.5465L82.5304 32.437C82.4359 32.2992 82.3256 32.1683 82.1997 32.0482L64.2736 14.8308L77.7049 10.9403C77.7993 11.0781 77.9096 11.208 78.0356 11.329ZM59.0721 16.8228L76.9982 34.0393L63.567 37.9308C63.4725 37.793 63.3622 37.6621 63.2363 37.542L45.3102 20.3245L58.7415 16.434C58.8369 16.5708 58.9472 16.7017 59.0721 16.8228ZM96.8553 5.39239C97.6643 5.15815 98.4979 5.03906 99.3335 5.03906C103.32 5.03906 106.876 7.70425 107.983 11.521L111.602 24.0153L101.494 26.9432C101.398 26.8055 101.288 26.6755 101.162 26.5545L83.237 9.33801L96.8553 5.39239ZM13.9784 32.1496C15.1398 30.0405 17.0422 28.513 19.3354 27.8487L20.8156 27.4196C20.9111 27.5574 21.0213 27.6883 21.1463 27.8083L39.0724 45.0258L16.8267 51.4703L13.2068 38.976C12.5425 36.6838 12.8171 34.2597 13.9784 32.1496ZM17.6268 57.1117H39.7918L29.0877 75.6519H17.6268V57.1117ZM94.134 75.6519L104.838 57.1117H116.299V75.6519H94.134Z" fill="#BD8C47"/>
<path fill-rule="evenodd" clip-rule="evenodd" d="M84.3846 102.07C84.3846 101.169 83.9043 100.337 83.1248 99.8876L60.9894 87.1078C60.2099 86.6581 59.2493 86.6581 58.4698 87.1078C57.6904 87.5576 57.2101 88.3893 57.2101 89.2898V114.849C57.2101 115.749 57.6904 116.58 58.4698 117.03C58.8596 117.256 59.2946 117.369 59.7296 117.369C60.1646 117.369 60.5996 117.256 60.9894 117.03L83.1248 104.251C83.9043 103.802 84.3846 102.97 84.3846 102.07ZM62.2491 110.485V93.6537L76.826 102.07L62.2491 110.485Z" fill="#BD8C47"/>
<path fill-rule="evenodd" clip-rule="evenodd" d="M66.9624 123.961C65.5747 123.961 64.4429 125.093 64.4429 126.48C64.4429 127.868 65.5747 129 66.9624 129C68.3511 129 69.4819 127.868 69.4819 126.48C69.4819 125.093 68.3511 123.961 66.9624 123.961Z" fill="#BD8C47"/>
</g>
<defs>
<clipPath id="clip0_0_71">
<rect width="129" height="129" fill="white"/>
</clipPath>
</defs>
</svg>
