<svg width="129" height="129" viewBox="0 0 129 129" fill="none" xmlns="http://www.w3.org/2000/svg">
<path d="M0 8.48682V112.136H61.3002V108.354H3.78131V32.4977H125.219V108.354H112.513V112.136H129V8.48682H0ZM3.78131 28.7164V12.2681H125.219V28.7164H3.78131Z" fill="#BD8C47"/>
<path d="M9.31677 18.73H15.8466V22.5113H9.31677V18.73Z" fill="#BD8C47"/>
<path d="M19.0474 18.73H25.5772V22.5113H19.0474V18.73Z" fill="#BD8C47"/>
<path d="M28.7781 18.73H35.3079V22.5113H28.7781V18.73Z" fill="#BD8C47"/>
<path d="M99.6353 87.7906L60.1863 75.7346L72.242 115.184L78.8122 105.241L94.0851 120.513L104.965 109.634L89.692 94.3608L99.6353 87.7906ZM99.6172 109.635L94.0851 115.167L78.212 99.2925L73.5123 106.402L65.8804 81.4288L90.8543 89.0607L83.7429 93.7593L99.6172 109.635Z" fill="#BD8C47"/>
<path d="M116.581 42.3234H12.4196V65.566H116.581V42.3234ZM112.799 61.7847H16.2006V46.1049H112.799V61.7847Z" fill="#BD8C47"/>
<path d="M45.7768 99.6235V73.308H12.5472V99.6235H45.7768ZM16.3288 77.0893H41.9955V95.8429H16.3288V77.0893Z" fill="#BD8C47"/>
</svg>
