<svg width="161" height="159" viewBox="0 0 161 159" fill="none" xmlns="http://www.w3.org/2000/svg">
<path d="M102.164 36.3241L101.611 0L72.8203 0.0716537L72.7097 64.5199C73.705 76.8801 82.2207 84.977 94.4228 85.6936H161V56.9246H123.361C107.694 56.3872 102.017 42.3789 102.164 36.3241Z" fill="#BD8C47" fill-opacity="0.82"/>
<path d="M64.9731 72.6279V7.79028L36.3548 7.82615V100.853C37.3219 113.226 45.5958 121.331 57.4514 122.048H150.613V93.5409L85.5682 93.2496C70.3457 92.7117 64.8298 78.6889 64.9731 72.6279Z" fill="#BD8C47" fill-opacity="0.61"/>
<path d="M29.1422 108.192V12.9839H0V136.868C0.984781 149.44 9.41013 157.674 21.4828 158.403H145.419V129.144H50.1144C34.6132 128.597 28.9963 114.35 29.1422 108.192Z" fill="#BD8C47" fill-opacity="0.38"/>
</svg>
