<svg width="170" height="70" viewBox="0 0 170 70" fill="none" xmlns="http://www.w3.org/2000/svg">
<path d="M147.343 13.9882L147.13 0L136.043 0.0275934L136 24.8462C136.383 29.606 139.663 32.7241 144.362 33H170V21.9213H155.506C149.472 21.7143 147.286 16.3198 147.343 13.9882Z" fill="#BD8C47" fill-opacity="0.82"/>
<path d="M133.021 27.9685V3L122 3.01381V38.8377C122.372 43.6025 125.559 46.7238 130.124 47H166V36.022L140.952 35.9098C135.09 35.7027 132.966 30.3026 133.021 27.9685Z" fill="#BD8C47" fill-opacity="0.61"/>
<path d="M119.222 41.6639V5H108V52.7071C108.379 57.5481 111.624 60.7194 116.273 61H164V49.7323H127.299C121.329 49.5218 119.166 44.0353 119.222 41.6639Z" fill="#BD8C47" fill-opacity="0.38"/>
<path d="M151.418 70C150.05 70 148.841 69.7709 147.791 69.3127C146.752 68.8545 145.877 68.2382 145.166 67.4636C144.455 66.6782 143.913 65.7727 143.541 64.7473C143.18 63.7218 143 62.6364 143 61.4909C143 60.1709 143.235 58.9382 143.706 57.7927C144.176 56.6364 144.832 55.6327 145.675 54.7818C146.528 53.92 147.54 53.2436 148.71 52.7527C149.881 52.2509 151.166 52 152.566 52C153.933 52 155.142 52.2291 156.192 52.6873C157.242 53.1455 158.123 53.7673 158.834 54.5527C159.545 55.3382 160.081 56.2491 160.442 57.2855C160.814 58.3109 161 59.3964 161 60.5418C161 61.8727 160.759 63.1164 160.278 64.2727C159.808 65.4182 159.146 66.4164 158.293 67.2673C157.439 68.1182 156.428 68.7891 155.257 69.28C154.087 69.76 152.807 70 151.418 70ZM152.107 67.1691C152.807 67.1691 153.447 67.0273 154.026 66.7436C154.606 66.4491 155.104 66.0455 155.52 65.5327C155.935 65.0091 156.258 64.3873 156.488 63.6673C156.717 62.9473 156.832 62.1509 156.832 61.2782C156.832 60.4273 156.717 59.6145 156.488 58.84C156.269 58.0655 155.946 57.3836 155.52 56.7945C155.093 56.1945 154.573 55.72 153.961 55.3709C153.348 55.0109 152.654 54.8309 151.877 54.8309C151.166 54.8309 150.521 54.9782 149.941 55.2727C149.361 55.5673 148.863 55.9764 148.448 56.5C148.043 57.0236 147.726 57.6509 147.496 58.3818C147.266 59.1018 147.151 59.8927 147.151 60.7545C147.151 61.6164 147.261 62.4345 147.479 63.2091C147.709 63.9836 148.037 64.6655 148.464 65.2545C148.891 65.8436 149.41 66.3127 150.023 66.6618C150.635 67 151.33 67.1691 152.107 67.1691Z" fill="#CCCCCC"/>
<path d="M124 70L130.389 60.7792L124.469 52H129.03L131.376 55.9226L132.637 58.5547H132.945L134.271 55.9226L136.762 52H140.515L134.465 60.4736L141 70H136.455L133.624 65.466L132.282 62.8H131.974L130.632 65.4151L127.753 70H124Z" fill="#CCCCCC"/>
<path d="M106 52H109.916V63.15C109.916 63.7167 109.991 64.2333 110.142 64.7C110.293 65.1556 110.504 65.55 110.773 65.8833C111.043 66.2167 111.367 66.4778 111.744 66.6667C112.122 66.8444 112.537 66.9333 112.99 66.9333C113.379 66.9333 113.756 66.8667 114.123 66.7333C114.501 66.6 114.862 66.4278 115.207 66.2167C115.552 65.9944 115.881 65.7444 116.194 65.4667C116.507 65.1778 116.804 64.8778 117.084 64.5667V52H121V69.6667H117.828L117.246 66.6833C116.858 67.05 116.437 67.4333 115.984 67.8333C115.531 68.2222 115.051 68.5778 114.544 68.9C114.037 69.2222 113.497 69.4833 112.926 69.6833C112.365 69.8944 111.777 70 111.162 70C110.461 70 109.797 69.8556 109.172 69.5667C108.546 69.2778 107.996 68.8667 107.521 68.3333C107.057 67.8 106.685 67.15 106.405 66.3833C106.135 65.6167 106 64.75 106 63.7833V52Z" fill="#CCCCCC"/>
<path d="M96 43H100V70H96V43Z" fill="#CCCCCC"/>
<path d="M77 70V46H92L91.4444 48.8833H81.1751V56.1242H90.266L89.7273 58.9256H81.1751V70H77Z" fill="#CCCCCC"/>
<path d="M55 43H58.9787V54.7522C59.461 54.3194 59.9433 53.9199 60.4255 53.5536C60.9188 53.1763 61.4175 52.8545 61.9217 52.5882C62.4368 52.3107 62.9684 52.0943 63.5164 51.939C64.0645 51.7725 64.6399 51.6893 65.2427 51.6893C66.295 51.6893 67.2376 51.9279 68.0706 52.4051C68.9036 52.8711 69.6106 53.4982 70.1915 54.2861C70.7834 55.074 71.2328 55.9784 71.5397 56.9994C71.8465 58.0203 72 59.0857 72 60.1954C72 61.5493 71.7643 62.8255 71.293 64.024C70.8217 65.2115 70.1367 66.2491 69.2379 67.1369C68.3391 68.0247 67.2266 68.7238 65.9004 69.2343C64.5851 69.7448 63.0835 70 61.3956 70C60.5077 70 59.5048 69.9168 58.3868 69.7503C57.2689 69.5949 56.1399 69.312 55 68.9014V43ZM58.9787 66.3545C59.5706 66.6208 60.157 66.815 60.7379 66.9371C61.3188 67.0592 61.8614 67.1202 62.3656 67.1202C63.2753 67.1202 64.07 66.9482 64.7495 66.6042C65.44 66.2491 66.0155 65.7774 66.4758 65.1893C66.9362 64.6011 67.2814 63.9297 67.5116 63.1751C67.7418 62.4094 67.8569 61.6159 67.8569 60.7947C67.8569 60.0179 67.7582 59.2688 67.5609 58.5475C67.3636 57.815 67.0677 57.1714 66.6731 56.6165C66.2895 56.0617 65.8127 55.6178 65.2427 55.2848C64.6838 54.9408 64.0426 54.7688 63.3191 54.7688C62.7163 54.7688 62.0532 54.9242 61.3298 55.2349C60.6064 55.5345 59.8227 56.0949 58.9787 56.9162V66.3545Z" fill="#BD8C47"/>
<path d="M50.3732 68.0855C49.8893 68.4236 49.367 68.7127 48.8062 68.9527C48.2454 69.1927 47.668 69.3945 47.0742 69.5582C46.4804 69.7109 45.8866 69.82 45.2928 69.8855C44.71 69.9618 44.1546 70 43.6268 70C42.4062 70 41.268 69.8145 40.2124 69.4436C39.1677 69.0727 38.255 68.5273 37.4742 67.8073C36.7045 67.0873 36.0997 66.2036 35.6598 65.1564C35.2199 64.0982 35 62.8873 35 61.5236C35 60.0727 35.2474 58.7582 35.7423 57.58C36.2371 56.4018 36.8969 55.4036 37.7216 54.5855C38.5574 53.7564 39.5196 53.1182 40.6082 52.6709C41.7079 52.2236 42.8515 52 44.0392 52C45.0289 52 45.9471 52.1636 46.7938 52.4909C47.6515 52.8073 48.3883 53.2818 49.0041 53.9145C49.6309 54.5473 50.1203 55.3382 50.4722 56.2873C50.8241 57.2364 51 58.3382 51 59.5927C51 59.8982 50.9835 60.2255 50.9505 60.5745C50.9285 60.9127 50.8845 61.2455 50.8186 61.5727H39.1402C39.1402 62.4564 39.2942 63.2364 39.6021 63.9127C39.921 64.5891 40.3663 65.1564 40.9381 65.6145C41.51 66.0618 42.1973 66.4055 43 66.6455C43.8027 66.8745 44.688 66.9891 45.6557 66.9891C45.9306 66.9891 46.2495 66.9782 46.6124 66.9564C46.9863 66.9345 47.3821 66.8909 47.8 66.8255C48.2179 66.76 48.6467 66.6727 49.0866 66.5636C49.5265 66.4436 49.9553 66.2909 50.3732 66.1055V68.0855ZM47.2887 59.6418C47.2887 58.8455 47.1842 58.1473 46.9753 57.5473C46.7773 56.9473 46.5024 56.4455 46.1505 56.0418C45.7986 55.6382 45.3863 55.3382 44.9134 55.1418C44.4515 54.9345 43.9512 54.8309 43.4124 54.8309C42.8076 54.8309 42.2467 54.9509 41.7299 55.1909C41.2131 55.4309 40.7622 55.7691 40.3773 56.2055C39.9924 56.6309 39.69 57.1382 39.4701 57.7273C39.2502 58.3164 39.1402 58.9545 39.1402 59.6418H47.2887Z" fill="#BD8C47"/>
<path d="M18.9995 47.7529L23.296 63.6273L24.0312 67.0184H24.3579L25.0767 63.6273L29.3243 46H33L26.4163 70H21.6134L17.5619 55.7147L16.696 51.7174H16.3693L15.5198 55.7147L11.452 70H6.64901L0 46H4.2802L8.5604 63.6273L9.21386 67.0184H9.52426L10.2921 63.6273L14.5723 47.7529H18.9995Z" fill="#BD8C47"/>
</svg>
